<?xml version="1.0" encoding="utf-8"?>
<!-- Generator: Adobe Illustrator 19.2.1, SVG Export Plug-In . SVG Version: 6.00 Build 0)  -->
<svg version="1.0" id="Layer_1" xmlns="http://www.w3.org/2000/svg" xmlns:xlink="http://www.w3.org/1999/xlink" x="0px" y="0px"
	 viewBox="0 0 317.1 512" style="enable-background:new 0 0 317.1 512;" xml:space="preserve">
<g>
	<path class="logo__icon--color" d="M263.2,234.7c-26.7,35.3-69.1,58.2-116.8,58.2c-14,0-27.6-2-40.4-5.7c-5.4,12.9-8.3,27.1-8.3,42c0,4.4,0.3,8.7,0.8,12.9
		c3.7-0.5,7.5-0.8,11.3-0.8c47.1,0,85.3,38.2,85.3,85.3c0,3.9-0.3,7.7-0.8,11.4c4.3,0.5,8.6,0.8,13.1,0.8
		c60.6,0,109.7-49.1,109.7-109.7C317.1,288.9,295.5,253.8,263.2,234.7z"/>
	<path class="logo__icon--color" d="M207.4,219.4c20.4,0,39.5,5.6,55.8,15.3c18.6-24.5,29.6-55.1,29.6-88.2C292.8,65.5,227.3,0,146.4,0C65.6,0,0,65.5,0,146.4
		c0,66.8,44.8,123.2,106,140.8C122.5,247.4,161.7,219.4,207.4,219.4z"/>
	<path class="logo__icon--color" d="M98.5,342.1c-41.8,5.5-74,41.3-74,84.6c0,47.1,38.2,85.4,85.4,85.4c43.3,0,79-32.2,84.6-73.9
		C144.1,432.1,104.4,392.3,98.5,342.1z"/>
</g>
</svg>
